PathFileType	4	(X/Y/Z)	C:/Users/opensim2020/Desktop/walking_exp_matlab/subject02_walking07_straight_04.trc	
DataRate	CameraRate	NumFrames	NumMarkers	Units	OrigDataRate	OrigDataStartFrame	OrigNumFrames	
100.00	100.00	8	50	mm	100.00	2798	207	
Frame#	Time	LFHD			RFHD			LBHD			RBHD			C7			T10			CLAV			STRN			RBAK			LSHO			LUPA			LELB			LFRM			LWRA			LWRB			LFIN			RSHO			RUPA			RELB			RFRM			RWRA			RWRB			RFIN			LASI			RASI			LPSI			RPSI			LTHI			LKNE			LTIB			LANK			LHEE			LTOE			RTHI			RKNE			RTIB			RANK			RHEE			RTOE			*39			*40			*41			*42			*43			*44			*45			*46			*47			*48			*49			
		X1	Y1	Z1	X2	Y2	Z2	X3	Y3	Z3	X4	Y4	Z4	X5	Y5	Z5	X6	Y6	Z6	X7	Y7	Z7	X8	Y8	Z8	X9	Y9	Z9	X10	Y10	Z10	X11	Y11	Z11	X12	Y12	Z12	X13	Y13	Z13	X14	Y14	Z14	X15	Y15	Z15	X16	Y16	Z16	X17	Y17	Z17	X18	Y18	Z18	X19	Y19	Z19	X20	Y20	Z20	X21	Y21	Z21	X22	Y22	Z22	X23	Y23	Z23	X24	Y24	Z24	X25	Y25	Z25	X26	Y26	Z26	X27	Y27	Z27	X28	Y28	Z28	X29	Y29	Z29	X30	Y30	Z30	X31	Y31	Z31	X32	Y32	Z32	X33	Y33	Z33	X34	Y34	Z34	X35	Y35	Z35	X36	Y36	Z36	X37	Y37	Z37	X38	Y38	Z38	X39	Y39	Z39	X40	Y40	Z40	X41	Y41	Z41	X42	Y42	Z42	X43	Y43	Z43	X44	Y44	Z44	X45	Y45	Z45	X46	Y46	Z46	X47	Y47	Z47	X48	Y48	Z48	X49	Y49	Z49	X50	Y50	Z50	

78	0.770	-915.76587	10.86465	1739.21741	-1055.66516	36.27561	1716.03650	-882.32300	147.96434	1683.84644	-1020.54309	184.93884	1660.83093	-948.55103	222.19064	1532.26758	-952.03149	267.38086	1254.84790	-948.88794	80.12083	1468.20361	-964.77032	23.79643	1298.63330	-1008.04218	280.76172	1354.93982	-776.20117	137.34618	1508.76892	-686.02667	87.31207	1319.03992	-667.74438	30.89175	1187.88843	-668.11505	-49.89281	1080.29810	-721.92609	-153.81764	1005.01050	-680.13568	-123.03843	982.28412	-685.14740	-175.29881	942.13525	-1140.37439	159.89561	1501.89587	-1221.07568	201.27620	1312.79333	-1242.40222	189.33243	1167.17493	-1265.87500	160.33475	1050.09546	-1250.48840	111.10985	922.93146	-1281.97156	158.23058	920.37982	-1284.80042	121.68366	856.70734	-828.90454	38.00703	995.95618	-1081.13855	47.71028	982.48340	-902.99292	249.96989	1041.27625	-1018.55579	258.65143	1039.31152	-783.59741	107.90771	682.44592	-816.27435	145.33919	480.77603	-819.87469	205.25690	293.99203	-863.84686	205.29445	71.76012	-914.62366	242.34566	44.51567	-857.01031	48.31340	33.82761	-1171.98865	67.78707	686.74805	-1158.83679	17.70648	490.27707	-1158.38416	114.20241	331.60410	-1126.07446	186.11774	152.91000	-1062.75293	220.23013	103.94112	-1175.42896	70.82063	55.83176	-992.43622	116.02148	1815.43420	-3357.44287	2845.75879	1034.14258																											 
79	0.780	-916.17554	1.33805	1738.62317	-1056.09094	27.24368	1715.26489	-882.52490	138.46674	1683.75366	-1020.21857	175.99208	1660.46228	-948.22839	213.41953	1532.08679	-951.74487	259.14783	1254.77649	-948.79004	71.43738	1467.81494	-964.26251	15.48598	1298.08545	-1007.39368	273.28772	1354.78210	-776.23755	128.20192	1509.15601	-685.31110	75.47007	1320.77490	-666.25977	16.87040	1190.73462	-667.47461	-66.62318	1085.43726	-721.64679	-172.93903	1013.63245	-680.24091	-143.40842	989.79504	-685.76129	-196.80457	951.24438	-1140.11560	151.93341	1501.08569	-1219.88953	195.76338	1312.59583	-1241.67102	184.99074	1166.64539	-1265.55383	157.20245	1049.38843	-1250.24023	108.78885	921.99841	-1281.26331	156.20822	919.68396	-1284.28613	120.09067	855.71863	-828.02240	30.71433	994.94385	-1080.57593	39.27280	982.13477	-903.44647	242.29669	1040.92554	-1019.00641	250.49933	1039.32544	-783.77234	102.46365	681.90759	-816.51306	141.56686	480.48367	-820.13617	203.19821	294.30356	-864.05145	205.04620	71.90247	-914.98199	242.15498	44.74440	-856.93622	48.19965	33.75463	-1171.22192	57.28844	687.21796	-1157.35889	4.49554	490.65106	-1157.99695	94.45371	327.87137	-1126.19824	158.57336	145.99472	-1063.35962	191.35237	95.44913	-1174.17126	38.05892	54.52691	-992.86255	106.53172	1814.91882	-3360.27417	2845.14648	1034.09045																											 
80	0.790	-916.67981	-7.68354	1738.14990	-1056.54175	18.23512	1714.39233	-882.74744	129.23454	1683.37744	-1019.82672	166.87344	1659.95532	-948.03723	204.39658	1531.87524	-951.61133	250.87456	1254.54456	-948.85419	62.73633	1467.32898	-963.80957	7.17718	1297.46228	-1006.62415	264.97305	1354.38464	-776.35620	119.07841	1509.47766	-684.52917	64.17123	1322.45093	-664.95856	3.12147	1193.44312	-666.73126	-83.28970	1090.51343	-721.34436	-192.13680	1022.43616	-680.13550	-162.56122	997.20605	-686.17706	-217.18871	960.03296	-1139.82471	144.03552	1500.25928	-1219.54749	190.30952	1312.43005	-1241.20239	180.65451	1166.17493	-1265.15845	153.93019	1048.70166	-1250.01306	106.32719	921.00250	-1280.19116	153.94688	918.73163	-1283.82422	118.35641	854.76483	-827.45105	23.41216	993.94501	-1080.24487	30.89634	981.81860	-903.84161	234.52008	1040.39014	-1019.34467	242.40338	1039.03943	-784.02863	96.80019	681.29773	-816.80121	137.69054	480.15839	-820.33563	200.94978	294.54080	-864.21332	204.73816	72.06145	-915.10297	242.04659	45.02638	-856.89441	48.07081	33.66808	-1170.67322	46.99248	687.55542	-1155.93408	-8.31590	490.83929	-1157.48877	74.63626	324.07837	-1126.39941	130.81796	139.36604	-1063.93274	161.87982	87.37022	-1173.03455	5.67894	53.47983	-993.35803	97.16023	1814.45227	-3357.40991	2845.93555	1034.11499																											 
81	0.800	-917.35358	-17.17193	1737.36865	-1057.15784	9.20397	1713.49048	-882.95459	119.90610	1683.08765	-1020.25940	157.71872	1659.43396	-947.86206	195.71777	1531.55371	-951.57239	242.58038	1254.24719	-948.98035	54.01557	1466.71423	-963.56439	-1.20921	1296.67810	-1006.64154	256.94876	1354.09058	-776.62915	109.93251	1509.57947	-683.82544	53.23444	1324.15601	-663.76520	-10.36389	1195.99622	-666.28424	-99.70389	1095.01624	-721.40521	-210.04918	1030.68896	-680.36206	-181.74519	1004.28699	-686.66895	-237.00002	968.74146	-1139.79065	135.94414	1499.17212	-1218.81140	184.51720	1312.03564	-1240.87085	176.21109	1165.73389	-1264.85754	150.46049	1048.01160	-1249.80579	103.73481	919.99377	-1279.92651	151.44148	918.07733	-1283.51990	116.36520	853.82056	-826.85541	15.96268	992.89941	-1080.19348	22.55438	981.38721	-904.27838	226.80420	1039.77100	-1019.62683	234.40163	1038.48132	-784.32080	91.18072	680.59314	-817.07849	133.62892	479.76181	-820.41516	198.35902	294.70905	-864.37286	204.44519	72.22425	-915.17145	241.82118	45.27520	-856.80524	47.92963	33.58960	-1170.45239	36.79033	687.65985	-1154.37927	-20.74592	490.78448	-1157.09790	54.90799	320.34558	-1126.81641	103.08175	133.22659	-1064.46375	132.14671	79.81175	-1172.10156	-26.51418	52.94230	-993.87219	87.81127	1813.86548	-3360.28345	2845.20459	1033.89380																											 
82	0.810	-918.62177	-27.30451	1736.46680	-1057.74060	0.16862	1712.48267	-883.41766	110.68299	1682.51111	-1020.96417	148.96271	1658.87305	-947.79773	186.87981	1531.06482	-951.63843	234.23326	1253.81946	-949.19586	45.37856	1465.92627	-963.40161	-9.66526	1295.86243	-1006.17035	248.52005	1353.54688	-776.95313	100.77756	1509.57300	-683.51215	41.99430	1325.62354	-662.77051	-23.37628	1198.36646	-665.85229	-115.44724	1099.99194	-721.35718	-227.38458	1038.88562	-680.40570	-199.70090	1011.27014	-687.32843	-256.41504	977.45898	-1139.74207	127.99013	1498.24707	-1218.49170	178.59912	1311.68420	-1240.22583	171.45160	1165.04382	-1264.50037	146.90448	1047.24036	-1249.92493	100.85263	918.98743	-1279.76758	149.01967	917.43866	-1283.31116	114.28235	852.87201	-826.64099	8.33444	991.91010	-1080.28491	14.24272	980.91608	-904.69232	218.98010	1039.02478	-1019.79077	226.34389	1037.65723	-784.55652	85.53401	679.96649	-817.39758	129.46674	479.30295	-820.59735	195.89410	294.87860	-864.52100	204.11560	72.37938	-915.58679	241.50790	45.44638	-856.76282	47.79985	33.54101	-1169.77832	27.02778	687.43890	-1152.99524	-32.80810	490.52472	-1156.88623	35.33658	316.65363	-1127.36890	75.35867	127.52696	-1065.64978	102.37974	72.93672	-1171.35168	-58.37452	52.88191	-994.56927	78.33175	1813.09265	-3360.35376	2845.27197	1033.89612																											 
83	0.820	-919.31958	-36.56720	1735.43701	-1058.33801	-8.93529	1711.38672	-883.82434	101.25484	1681.59473	-1021.83795	139.93843	1658.18835	-947.85181	177.97507	1530.30103	-951.78583	225.87410	1253.23291	-949.57526	36.38636	1465.15283	-963.41205	-18.24838	1294.88171	-1005.49414	240.22595	1352.82983	-777.39569	91.53796	1509.45093	-683.11914	31.22135	1326.83801	-661.90472	-36.14368	1200.52905	-665.48547	-130.63908	1104.41028	-721.47894	-244.10721	1046.42200	-680.65021	-217.06102	1017.91376	-687.87787	-274.92065	985.64972	-1139.84534	119.89806	1497.14905	-1217.91663	172.46930	1311.17078	-1240.06763	166.58936	1164.52258	-1264.44531	143.06430	1046.57849	-1249.94580	97.96931	917.96014	-1279.49951	146.25757	916.65802	-1283.52234	111.93812	851.78284	-826.53650	0.54571	990.80286	-1080.51721	5.92543	980.39679	-905.09705	211.22176	1038.17810	-1019.95209	218.26816	1036.70020	-784.92212	79.62354	679.18634	-817.73468	125.16902	478.86264	-820.84686	193.42403	295.05038	-864.69177	203.81139	72.56551	-915.52509	241.18199	45.58490	-856.69159	47.70923	33.48779	-1169.52771	17.47566	686.96301	-1151.67053	-44.46740	489.92825	-1156.91101	15.83163	313.05688	-1128.10950	47.56819	122.39689	-1066.68481	72.92144	66.71239	-1170.72925	-89.80587	53.24628	-995.09100	69.14165	1812.11267	-3360.35327	2845.27173	1033.90186																											 
84	0.830	-919.61249	-45.25844	1734.55847	-1059.02869	-17.98862	1710.25134	-884.55463	91.86635	1680.49927	-1021.46924	130.67247	1657.03259	-948.02539	169.02618	1529.48901	-951.99731	217.44672	1252.62854	-949.99036	27.60733	1464.17773	-963.54718	-26.75973	1293.80713	-1005.22504	231.73018	1351.98315	-777.98230	82.35067	1509.18347	-683.11707	20.31875	1327.86499	-661.22736	-48.60153	1202.50745	-665.21570	-145.49959	1108.35876	-721.66510	-260.10333	1053.79736	-680.89423	-234.06795	1024.37549	-688.35260	-292.29773	993.50928	-1140.08630	111.64665	1495.88672	-1217.94775	166.08502	1310.77576	-1239.91345	161.47937	1163.93774	-1264.35083	139.04103	1045.72852	-1250.21204	94.71523	916.83698	-1279.29590	143.26506	915.85028	-1283.41797	109.45656	850.77509	-826.73676	-7.39644	989.89697	-1080.86731	-2.42234	979.82355	-905.48938	203.25566	1037.21045	-1020.11584	210.17596	1035.58777	-785.18652	73.82247	678.40552	-818.10938	121.00259	478.41461	-820.98651	191.00204	295.26974	-864.86823	203.48970	72.78912	-915.69934	241.10544	45.90652	-856.60938	47.58146	33.43940	-1169.34045	8.19077	686.18939	-1150.38037	-55.75933	489.10736	-1157.02661	-3.56769	309.61295	-1128.85364	19.97303	117.65324	-1067.83057	43.33593	61.13904	-1170.16260	-120.71000	54.18219	-995.88599	59.67505	1811.21960																														 
85	0.840	-920.71997	-54.79020	1733.18628	-1059.89136	-27.15144	1708.90967	-885.23383	82.66750	1679.57349	-1022.46606	121.79226	1656.21765	-948.49329	160.07425	1528.74817	-952.29077	208.96898	1251.86060	-950.57623	18.76913	1463.06738	-963.85931	-35.32998	1292.66260	-1005.20502	223.28003	1351.13379	-778.71191	73.10763	1508.71167	-683.02496	9.93306	1328.62805	-660.66327	-60.72126	1204.16821	-665.05029	-159.41631	1112.38000	-721.89197	-275.19757	1060.46875	-681.28094	-250.10970	1030.39734	-688.89764	-309.28644	1001.06720	-1140.42737	103.37572	1494.67566	-1217.81750	159.49014	1310.14575	-1240.04858	156.30508	1163.45752	-1264.42822	134.75661	1044.88855	-1250.57544	91.31094	915.65558	-1279.27722	140.08000	914.99567	-1283.61060	106.77934	849.63361	-826.80157	-15.30070	988.80402	-1081.26892	-10.83526	979.05487	-905.87054	195.17549	1036.14368	-1020.28949	202.01669	1034.32629	-785.48914	67.79667	677.55121	-818.49451	116.82638	477.88620	-821.37103	188.70673	295.48053	-865.08478	203.14890	73.01109	-915.70221	241.15015	46.39327	-856.55841	47.47244	33.38026	-1169.23975	-0.80164	685.18115	-1149.17725	-66.58279	488.13559	-1157.27771	-22.60347	306.42496	-1129.81042	-7.29105	113.46920	-1069.19617	14.04256	56.15760	-1169.75146	-151.12257	55.91198	-996.50366	50.51496	1809.98853																														 
